<?xml version="1.0"?>
<svg version="1.1" xmlns="http://www.w3.org/2000/svg" width="400" height="200" style="border: dashed 2px #aaa"><path fill="#" d="M22.5,116.75l1,5.25s2.25,1.25,5.5,1.25c3.65,0,7.65-1.8,7.65-5.35c0-7.7-18.05-4.5-18.05-16.45c0-7,5.6-9.95,11.85-9.95c4.75,0,10.55,2,10.55,2l-0.25,8.5l-3.25,0l-1.7-5.35s-2.55-0.9-5.3-0.9c-4.5,0-6.65,2.35-6.65,4.85c0,7.6,18,4.7,18,15.95c0,7.5-6.05,10.95-13.05,10.95c-5.25,0-10.3-2-10.3-2l0-8.75l4,0z M52.28,108.25l-0.25-6.25s5.5-2,9.75-2c5.8,0,9.25,2,9.25,7.75l0,15.25l4,1l0,2.75l-7.75,0.25l-1.05-3.5c-1.7,1.7-4.7,4-8.2,4c-4.75,0-7.5-2.75-7.5-7.5c0-5.75,4.5-7.75,11.5-7.75l4,0l0-4c0-3-1.75-4.5-4.75-4.5s-5.05,0.75-5.05,0.75l-0.7,3.75l-3.25,0z M66.03,115.5l-3.5,0c-5,0-6.9,1.25-6.9,4.25c0,2.25,1.4,3.75,3.65,3.75c3.75,0,6.75-4,6.75-4l0-4z M90.21,100.5l0.45,3.55c1.15-1.1,4.95-4.05,9.05-4.05c3.6,0,5.8,1.7,6.95,4.3c0.65-0.65,4.7-4.3,9.3-4.3c5.5,0,7.75,3.5,7.75,9l0,14l3.75,1.25l0,2.75l-12,0l0-2.75l3.25-1.25l0-13.5c0-3.5-1-5.25-4.25-5.25c-4.25,0-7,4-7,4l0,14.75l3.25,1.25l0,2.75l-11.5,0l0-2.75l3.25-1.25l0-13.5c0-3.5-1-5.25-4.25-5.25c-4.25,0-7,4-7,4l0,14.75l3.25,1.25l0,2.75l-12.5,0l0-2.75l4.25-1.25l0-18.5l-4.25-1l0-2.75z"/><path fill="#" d="M143.64,123l0-27l-4.25-1l0-2.75l9.25-0.25l5.75,0c6.25,0,10.75,2.75,10.75,8.75c0,4.5-2.3,7.05-6.5,8.1c5.25,1.2,7.75,4.15,7.75,8.15c0,7-4.5,10-12.75,10l-14.25,0l0-3z M148.64,107l3.75,0c4.5,0,7.5-1.75,7.5-5.75c0-3.5-2.5-5.25-5.75-5.25l-5.5,0l0,11z M148.64,123l5.25,0c4.75,0,7.25-2,7.25-5.75c0-5-3.25-6.5-8.75-6.5l-3.75,0l0,12.25z M176.32,108.25l-0.25-6.25s5.5-2,9.75-2c5.8,0,9.25,2,9.25,7.75l0,15.25l4,1l0,2.75l-7.75,0.25l-1.05-3.5c-1.7,1.7-4.7,4-8.2,4c-4.75,0-7.5-2.75-7.5-7.5c0-5.75,4.5-7.75,11.5-7.75l4,0l0-4c0-3-1.75-4.5-4.75-4.5s-5.05,0.75-5.05,0.75l-0.7,3.75l-3.25,0z M190.07,115.5l-3.5,0c-5,0-6.9,1.25-6.9,4.25c0,2.25,1.4,3.75,3.65,3.75c3.75,0,6.75-4,6.75-4l0-4z M219.1,124.25l0,2.75l-13.85,0l0-2.75l4.25-1.25l0-30.5l-4.25-1l0-2.75l9.35-0.25l0,34.5z M237.88,124.25l0,2.75l-13.85,0l0-2.75l4.25-1.25l0-30.5l-4.25-1l0-2.75l9.35-0.25l0,34.5z M266.06,114.5l-17.25,0c0,5.5,2.95,9,7.25,9c5,0,8.4-2.75,8.4-2.75l1.75,2.6s-4.65,4.15-10.65,4.15c-8,0-12-5.25-12-13.5c0-8,5-14,12.25-14s10.5,4.25,10.5,11.75c0,1.25-0.25,2.65-0.25,2.75z M249.01,110.75l12,0c0-3.75-1.45-6.85-5.45-6.85s-6.25,3.1-6.55,6.85z M279.74,104l4.25,18.5l6.55-21.75l4.75-0.75l6.2,22.5l4-18.25l-3.5-0.75l0-2.75l11.25-0.25l0,3l-2.9,0.5l-6.1,23l-5.75,0l-4.75-15.5l-1.2-4.8l-1.05,4.8l-4.75,15.5l-5.75,0l-6.25-22.75l-2.5-0.75l0-2.75l11.25-0.25l0,3z"/></svg>
